<svg width="130" height="30" viewBox="0 0 130 30" fill="none" xmlns="http://www.w3.org/2000/svg">
<path d="M0 0.841122H8.0531V22.1495H19.8451L23.8719 26.0749L19.8451 30H0V0.841122Z" fill="white"/>
<rect x="25.8849" y="15.1402" width="8.0531" height="14.8598" fill="white"/>
<ellipse cx="29.9115" cy="6.4486" rx="6.61504" ry="6.4486" fill="#FB0E0F"/>
<path d="M39.9779 0.841122V7.85047L47.6069 30H57.371L65 7.85047V0.841122H59.104L52.4889 20.2804L45.8739 0.841122H39.9779Z" fill="white"/>
<path d="M90.885 0.841122H69.6018V30H90.885V22.1495H77.6549V19.065H87.4791L90.885 15.4206L87.4795 11.7757H77.6549V8.69159H90.885V0.841122Z" fill="white"/>
<path d="M103.827 0.841122H111.881V30H103.827V12.3522L101.428 14.8609L101.426 14.8598H96.062V8.97196L103.827 0.841122Z" fill="white"/>
<path d="M121.947 0.841122H130V30H121.947V12.3522L119.547 14.8609L119.545 14.8598H114.181V8.97196L121.947 0.841122Z" fill="white"/>
</svg>
