<svg width="120" height="120" viewBox="0 0 120 120" fill="none" xmlns="http://www.w3.org/2000/svg">
<g clip-path="url(#clip0_1_255)">
<rect width="120" height="120" rx="30" fill="white"/>
<path d="M101.105 22.3684L18.8947 27.0136V66.1456L30.4498 66.9518V78.5263L44.5192 67.9371L101.105 71.8913V22.3684Z" fill="#EE3923"/>
<path d="M52.6728 36.211H48.0044V57.8757H52.6728V36.211Z" fill="white"/>
<path d="M68.7805 36.275L65.0638 50.2041L61.3343 36.211H56.666L62.4467 57.8821H63.019L62.9997 57.9397H67.6681L73.4424 36.275H68.7805Z" fill="white"/>
<path d="M35.2276 53.4225V36.211H30.5592V53.4225V57.8821V58.0612H44.0048V53.4225H35.2276Z" fill="white"/>
<path d="M91.8843 40.8562V36.211H82.0011H77.3327V40.8562V44.8615V49.5067V53.4225V57.8821V58.0612H91.8843V53.4225H82.0011V49.5067H89.5501V44.8615H82.0011V40.8562H91.8843Z" fill="white"/>
<path d="M49.5768 82.1751H37.421V94.5436H49.5768V82.1751Z" fill="#1C1C1C"/>
<path d="M44.3922 85.1358V88.3528L42.3487 85.1358H40.336V91.5228H42.3487V88.3057L44.3922 91.5228H46.4049V85.1358H44.3922Z" fill="white"/>
<path d="M62.6194 88.8524H60.7661V92.2211H58.1622V88.8524H56.3089V92.2211H51.79V94.1095H67.1357V92.2211H62.6194V88.8524Z" fill="#1C1C1C"/>
<path d="M59.4629 85.4052L64.812 89.7233L65.9636 88.2456L60.3908 83.7444V80.2632H58.5375V83.7444L52.9647 88.2456L54.1163 89.7233L59.4629 85.4052Z" fill="#1C1C1C"/>
<path d="M80.2631 80.2632H78.4098V89.7939H80.2631V80.2632Z" fill="#1C1C1C"/>
<path d="M77.2994 86.8594H75.1941V82.5569H77.2994V80.6712H66.7784V82.5569H68.8836V86.8594H66.7784V88.7451H77.2994V86.8594ZM73.3408 82.5569V86.8594H70.7369V82.5569H73.3408Z" fill="#1C1C1C"/>
<path d="M75.3972 89.7207C73.0967 89.7207 71.2253 91.6248 71.2253 93.9656C71.2253 96.3065 73.0967 98.2105 75.3972 98.2105C77.6978 98.2105 79.5691 96.3065 79.5691 93.9656C79.5691 91.6248 77.6978 89.7207 75.3972 89.7207ZM75.3972 96.2986C74.1326 96.2986 73.1044 95.2524 73.1044 93.9656C73.1044 92.6788 74.1326 91.6326 75.3972 91.6326C76.6619 91.6326 77.6901 92.6788 77.6901 93.9656C77.6901 95.2524 76.6619 96.2986 75.3972 96.2986Z" fill="#1C1C1C"/>
</g>
<defs>
<clipPath id="clip0_1_255">
<rect width="120" height="120" fill="white"/>
</clipPath>
</defs>
</svg>
