<svg width="80" height="32" viewBox="0 0 80 32" fill="none" xmlns="http://www.w3.org/2000/svg">
<g clip-path="url(#clip0_1_478)">
<path d="M18.6843 26.4063L12.4832 18.8582L21.4848 7.87373H16.5744C14.3692 7.87373 12.8594 8.54403 11.5211 10.0923L6.7774 15.8702V0H2.02417C0.909686 0 0 0.896888 0 2.01092V31.6365H4.75323C5.87248 31.6365 6.7774 30.7349 6.7774 29.6256V21.7424L10.6352 26.4251L13.9072 30.4234C14.5693 31.2494 15.4409 31.6318 16.3315 31.6318H22.9755L18.6843 26.4015V26.4063Z" fill="black"/>
<path d="M30.8817 31.6365C27.2239 31.6365 24.6854 29.13 24.6854 25.4952V2.0062C24.6854 0.896887 25.595 0 26.7191 0H31.477V24.2348C31.477 25.2309 32.2962 26.0428 33.2964 26.0428H38.1449V29.6256C38.1449 30.7349 37.2352 31.6365 36.1112 31.6365H30.8817Z" fill="black"/>
<path d="M7.42987 15.0629L7.4394 15.0535C7.4394 15.0535 7.42987 15.0629 7.42511 15.0629H7.42987ZM39.1212 6.13184L38.7069 6.56612C38.6831 6.57084 37.4162 7.86424 33.7489 7.86424H16.4553C13.7262 7.86424 12.4355 8.96883 11.4544 10.1584L10.9114 10.8193C10.9114 10.8193 10.8829 10.8476 10.8733 10.8617L7.4394 15.0488C8.68724 14.1189 10.4018 13.5571 12.145 13.5571H33.7536C36.3779 13.5571 38.8926 12.7877 39.1022 10.8429C39.1308 10.6871 39.126 10.5927 39.126 10.5927V6.13184H39.1212Z" fill="#ED1C24"/>
<path d="M47.4847 22.748C47.4847 14.3739 52.1665 12.6509 56.4291 12.6509C57.3912 12.6509 58.2771 12.7547 59.0915 12.9672V9.16719C59.0915 5.96672 59.2677 4.94238 60.5108 4.94238H63.8114C63.4542 5.78735 63.278 7.09019 63.278 8.95477V30.5886C63.278 31.292 62.9255 31.6083 62.2111 31.6083H59.0915V30.5886C57.8103 31.4336 56.3577 31.9953 54.5812 31.9953C49.9327 31.9953 47.4847 28.7949 47.4847 22.7432V22.748ZM59.0915 26.7603V16.6963C58.3438 16.4839 57.777 16.3801 56.7482 16.3801C54.5097 16.3801 51.7426 17.0126 51.7426 22.8188C51.7426 26.3025 53.0952 28.2709 55.5766 28.2709C56.6054 28.2709 58.2771 27.7092 59.0915 26.7603Z" fill="#ED1C24"/>
<path d="M68.3598 31.0512C68.0026 30.8011 67.6121 30.3809 67.6121 29.8522L67.6502 27.2135C69.1409 27.9546 71.0603 28.3417 72.9035 28.3417C74.961 28.3417 75.7421 27.4967 75.7421 26.4441C75.7421 25.3914 75.3134 24.7211 73.9275 24.2302L72.1176 23.5976C69.4933 22.6819 67.7168 21.2044 67.7168 18.1455C67.7168 14.3125 70.4459 12.9388 74.6705 12.9388C76.3422 12.9388 77.9377 12.868 78.7188 12.5518V15.6484C78.7188 16.3895 77.0137 16.5972 74.8514 16.5972C72.9321 16.5972 71.9747 17.0173 71.9747 18.2163C71.9747 18.9905 72.2938 19.5852 73.5369 20.0101L75.3134 20.6096C77.9425 21.4876 80 23.0737 80 26.2741C80 29.8994 77.9044 32.0095 72.6892 32.0095C71.2699 32.0095 69.2838 31.6224 68.3598 31.0607V31.0512Z" fill="#ED1C24"/>
</g>
<defs>
<clipPath id="clip0_1_478">
<rect width="80" height="32" fill="white"/>
</clipPath>
</defs>
</svg>
