<svg width="158" height="48" viewBox="0 0 158 48" fill="none" xmlns="http://www.w3.org/2000/svg">
<g clip-path="url(#clip0_1_427)">
<path d="M99.0062 22.3362C119.023 12.2062 116.519 2.51444 96.1436 0.521831C74.1939 -1.6377 42.1143 3.02563 19.7738 11.9454L16.6788 13.2599C-6.59125 23.536 -4.39417 34.4171 16.3831 36.3993C39.0828 38.5692 73.5918 34.1354 96.1859 23.7446L99.0062 22.3467V22.3362Z" fill="#004093"/>
<path d="M94.6753 24.3285C94.6753 24.3285 90.8516 24.631 90.7565 21.5847V15.6903C90.7565 15.6903 90.2812 12.4458 94.5697 12.4458C94.5697 12.4458 97.3583 12.3519 98.0977 13.9898C98.0977 13.9898 98.4569 14.428 98.3618 16.2328H95.3831V15.3043C95.3831 15.3043 95.3831 14.5532 94.612 14.5532C94.612 14.5532 93.8092 14.5845 93.8092 15.2104V21.303C93.8092 21.303 93.7775 22.1272 94.6859 22.1272C94.6859 22.1272 95.4253 22.1063 95.4253 21.2509V19.4878H94.612V17.8499H98.4357V21.3135C98.4357 21.3135 98.4357 22.0437 98.1188 22.4715C98.1188 22.4715 97.8125 22.9409 97.6858 23.0244C97.6858 23.0244 96.6612 24.3285 94.6753 24.3285Z" fill="white"/>
<path d="M86.8166 12.8843H83.8378L84.0491 19.6341H83.9223L80.9013 12.8947H77.2994V24.0158H80.2359L80.0563 17.2138H80.1936L83.3097 24.0158H86.8166V12.8843Z" fill="white"/>
<path d="M68.3948 12.8423H65.1731V21.1883C65.1731 21.1883 64.8457 24.3493 69.3561 24.3493C69.3561 24.3493 73.2749 24.3911 73.2749 21.3344V12.8423H70.1271V21.23C70.1271 21.23 70.1694 22.1481 69.3138 22.1481C69.3138 22.1481 68.4054 22.1898 68.4054 21.2509V12.8423H68.3948Z" fill="white"/>
<path d="M61.4761 16.2853V14.8874C61.4761 14.8874 61.6979 12.6026 57.9798 12.4983C57.9798 12.4983 55.0539 12.3105 54.2194 13.865C54.2194 13.865 53.8919 14.2093 53.8919 15.4194V16.2958C53.8919 16.2958 53.8603 17.3077 54.3778 17.9545C54.3778 17.9545 54.6736 18.3823 55.4024 18.8517C55.4024 18.8517 56.8812 19.6342 57.758 20.0828C57.758 20.0828 58.6558 20.5835 58.5291 21.3868C58.5291 21.3868 58.4551 22.211 57.5995 22.1797C57.5995 22.1797 56.8073 22.1484 56.8073 21.3451V20.3957H53.649V21.7728C53.649 21.7728 53.5645 24.4018 57.6207 24.4018C57.6207 24.4018 61.4972 24.4853 61.6768 21.6998V20.5835C61.6768 20.5835 61.8141 18.883 60.3036 17.9858C60.3036 17.9858 59.5009 17.4955 59.0044 17.3077C59.0044 17.3077 57.4622 16.5983 57.1559 16.2645C57.1559 16.2645 56.5538 15.7011 56.9024 15.0543C56.9024 15.0543 57.0503 14.6266 57.684 14.6266C57.684 14.6266 58.5079 14.6683 58.5079 15.3464V16.2958H61.4761V16.2853Z" fill="white"/>
<path d="M37.9948 12.8843L37.7518 24.0158H40.6778L40.72 15.628H40.9524L42.5051 24.0158H45.5895L47.1211 15.6385H47.3218L47.3958 24.0158H50.3428L50.0259 12.8843H45.1247L44.1318 18.9769H43.8994L42.9488 12.8843H37.9948Z" fill="white"/>
<path d="M34.6041 24.005L32.65 12.8735H27.6643L25.7207 24.005H28.879L30.0304 15.3773H30.2944L31.4458 24.005H34.6041Z" fill="white"/>
<path d="M22.6258 16.2853V14.8874C22.6258 14.8874 22.8476 12.6026 19.1294 12.4983C19.1294 12.4983 16.2035 12.3105 15.369 13.865C15.369 13.865 15.0416 14.2093 15.0416 15.4194V16.2958C15.0416 16.2958 15.0099 17.3077 15.5275 17.9545C15.5275 17.9545 15.8232 18.3823 16.5521 18.8517C16.5521 18.8517 18.0309 19.6342 18.9076 20.0828C18.9076 20.0828 19.8055 20.5835 19.6787 21.3868C19.6787 21.3868 19.6048 22.211 18.7492 22.1797C18.7492 22.1797 17.957 22.1484 17.957 21.3451V20.3957H14.7986V21.7728C14.7986 21.7728 14.7141 24.4018 18.7703 24.4018C18.7703 24.4018 22.6469 24.4853 22.8265 21.6998V20.5835C22.8265 20.5835 22.9638 18.883 21.4533 17.9858C21.4533 17.9858 20.6505 17.4955 20.154 17.3077C20.154 17.3077 18.6119 16.5983 18.3055 16.2645C18.3055 16.2645 17.7034 15.7011 18.052 15.0543C18.052 15.0543 18.1999 14.6266 18.8337 14.6266C18.8337 14.6266 19.6576 14.6683 19.6576 15.3464V16.2958H22.6258V16.2853Z" fill="white"/>
<path d="M112.791 31.6626V39.9669H114.819V36.8789H116.615V35.1784H114.861V31.6626H112.791Z" fill="#004093"/>
<path d="M105.143 40.6553H114.861V47.4573H105.143V40.6553ZM112.875 42.314H107.129V45.7985H112.875V42.314Z" fill="#004093"/>
<path d="M128.857 31.6626V39.9669H126.829V36.159H124.188V34.4585H126.787V31.6626H128.857Z" fill="#004093"/>
<path d="M123.808 47.9998C120.787 47.9998 118.347 46.1845 118.347 43.9415C118.347 41.6986 120.787 39.8833 123.808 39.8833C126.829 39.8833 129.269 41.6986 129.269 43.9415C129.269 46.1845 126.829 47.9998 123.808 47.9998ZM127.199 43.9415C127.199 42.6896 125.677 41.6777 123.808 41.6777C121.938 41.6777 120.407 42.6896 120.407 43.9415C120.407 45.1935 121.928 46.2054 123.808 46.2054C125.688 46.2054 127.199 45.1935 127.199 43.9415Z" fill="#004093"/>
<path d="M107.921 31.9648C107.921 31.9648 107.647 36.4613 111.333 38.3182L110.277 39.7684C110.277 39.7684 107.573 38.0053 106.96 36.0857C106.347 38.0157 103.654 39.7684 103.654 39.7684L102.598 38.3182C106.284 36.4508 106.009 31.9648 106.009 31.9648H107.921Z" fill="#004093"/>
<path d="M120.702 36.0857C120.09 38.0053 117.618 39.6223 117.618 39.6223L116.562 38.1722C120.026 36.4613 119.752 31.9648 119.752 31.9648H121.664C121.664 31.9648 121.389 36.4613 124.854 38.1722L123.797 39.6223C123.797 39.6223 121.326 38.0157 120.713 36.0857" fill="#004093"/>
<path d="M152.56 32.0278H144.744V33.7075H152.56V32.0278Z" fill="#004093"/>
<path d="M156.004 31.3286H154.018V47.6764H156.004V31.3286Z" fill="#004093"/>
<path d="M158 37.2749H155.074V38.9545H158V37.2749Z" fill="#004093"/>
<path d="M142.895 31.3809H140.909V42.2515H142.895V31.3809Z" fill="#004093"/>
<path d="M142.208 35.0737H138.332V36.7534H142.208V35.0737Z" fill="#004093"/>
<path d="M139.24 32.0278H131.149V33.7075H139.24V32.0278Z" fill="#004093"/>
<path d="M134.92 40.5508H132.934V47.4258H134.92V40.5508Z" fill="#004093"/>
<path d="M136.325 32.6641C136.325 32.6641 136.325 32.7267 136.314 32.8518C136.357 34.3646 135.765 36.9205 139.874 38.8923L138.839 40.2902C138.839 40.2902 135.881 38.7149 135.174 36.7432C134.466 38.7254 131.508 40.2902 131.508 40.2902L130.473 38.8923C134.582 36.9205 133.991 34.3541 134.033 32.8518C134.033 32.7267 134.022 32.6641 134.022 32.6641H136.335H136.325Z" fill="#004093"/>
<path d="M149.571 33.4463V34.6878C149.666 38.3183 149.793 40.9473 152.993 43.7536L151.683 45.1724C151.683 45.1724 148.99 42.6999 148.588 40.4778C148.187 42.6999 145.494 45.1724 145.494 45.1724L144.184 43.7536C147.384 40.9473 147.511 38.3183 147.606 34.6878V33.4463H149.581H149.571Z" fill="#004093"/>
<path d="M142.948 45.7466H133.98V47.4262H142.948V45.7466Z" fill="#004093"/>
</g>
<defs>
<clipPath id="clip0_1_427">
<rect width="158" height="48" fill="white"/>
</clipPath>
</defs>
</svg>
