<svg width="190" height="76" viewBox="0 0 190 76" fill="none" xmlns="http://www.w3.org/2000/svg">
<g clip-path="url(#clip0_1_410)">
<path d="M62.0734 58.231C60.7556 48.4691 55.866 40.513 50.8724 40.4619C45.8788 40.4619 38.5791 48.435 34.3137 58.231C30.0657 68.0441 34.8686 75.9831 45.5841 75.9831C56.3515 75.8809 63.3911 67.993 62.0734 58.214" fill="#DF0716"/>
<path d="M11.0449 32.2499C4.64683 32.2499 0 37.2076 0 43.4941C0 49.7805 4.66417 54.5848 11.0449 54.5848C14.5994 54.5848 17.9631 53.0175 20.1825 50.2916C19.9398 50.0702 19.3329 48.7754 17.2696 48.7754C15.3276 48.7754 14.8941 50.6835 11.0449 50.6835C7.19566 50.6835 4.16134 47.5488 4.16134 43.477C4.16134 39.4053 7.28235 36.1172 11.0449 36.1172C14.478 36.1172 15.2929 38.1276 17.0615 38.1276C18.8301 38.1276 19.8531 36.7476 20.0958 36.5261C17.8764 33.8003 14.5994 32.2329 11.0449 32.2329" fill="#261612"/>
<path d="M33.5855 32.8975H24.6039C23.0781 32.8975 22.0204 33.7834 22.0204 35.2144V36.5262H26.0257C26.0257 36.5262 26.1818 49.8147 26.0084 51.2629C25.9564 52.3702 25.4709 54.9768 22.9047 56.1694C20.7894 57.1405 20.772 58.0775 20.668 59.5085C20.7027 59.6108 20.7374 59.6789 20.8067 59.6789H20.8241C20.8934 59.6789 22.9221 59.1678 23.2168 59.0485C25.1068 58.4693 28.0197 57.1745 29.4068 54.5339C29.4068 54.5339 30.7072 52.5747 30.6726 48.3666V36.5092H30.8633C32.3718 36.5092 33.6028 35.6063 33.6028 34.1922V32.8975" fill="#261612"/>
<path d="M79.9325 25.8956C89.2782 29.5073 92.8847 39.5248 87.7523 48.6905C82.568 57.8902 73.1529 58.1628 66.4948 49.7638C59.8367 41.3477 56.3168 31.2961 58.6923 26.9518C61.1024 22.6586 70.5695 22.2838 79.9498 25.8956H79.9325Z" fill="#F49C00"/>
<path d="M32.2678 28.8427C40.5904 34.4307 49.9014 36.1173 53.1958 32.4886C56.5249 28.8427 55.3805 18.1779 50.7857 8.51816C46.1909 -1.14156 36.9493 -2.9304 29.8056 4.90641C22.7487 12.7262 23.9624 23.2718 32.2678 28.8427Z" fill="#007AC3"/>
<path d="M134.723 37.9573C134.723 34.8226 131.689 32.2671 127.944 32.2671C124.199 32.2671 121.164 34.8055 121.164 37.9573C121.164 41.1091 124.199 43.6305 127.944 43.6305C131.689 43.6305 134.723 41.092 134.723 37.9573ZM124.667 37.9573C124.667 35.8959 126.141 34.2093 127.944 34.2093C129.747 34.2093 131.221 35.8959 131.221 37.9573C131.221 40.0187 129.747 41.7053 127.944 41.7053C126.141 41.7053 124.667 40.0358 124.667 37.9573Z" fill="#261612"/>
<path d="M141.226 41.7397V32.6763H139.769C138.486 32.6763 137.792 33.4599 137.792 34.8569V43.9204H139.249C140.532 43.9204 141.226 43.1367 141.226 41.7397Z" fill="#261612"/>
<path d="M188.856 37.6169H186.532V32.6763H185.076C183.81 32.6763 183.099 33.4599 183.099 34.8569V40.8197C180.637 41.3479 177.793 41.5182 176.441 41.5523H172.314V35.7599H179.076C179.302 35.7599 180.221 35.6747 180.221 34.6184V33.5792H168.899V41.7397C168.899 42.8471 169.904 43.733 171.153 43.733H173.823C178.296 43.733 181.122 43.273 183.099 42.7108V44.5848H184.556C185.839 44.5848 186.532 43.8011 186.532 42.4041V39.8146H190V38.7754C190 37.7191 189.081 37.6509 188.856 37.6509V37.6169Z" fill="#261612"/>
<path d="M114.888 34.857V54.6364H116.344C117.627 54.6364 118.321 53.8527 118.321 52.4557V32.6934H116.864C115.581 32.6934 114.888 33.46 114.888 34.874V34.857Z" fill="#261612"/>
<path d="M104.519 37.8892V35.8448H107.085C107.328 35.8448 108.23 35.7596 108.23 34.7204V33.6812H98.5545C98.3117 33.6812 97.4101 33.7663 97.4101 34.8056V35.8448H101.103V37.8892C101.017 40.4617 100.444 44.806 96.2311 48.06C96.2311 48.06 96.8032 48.52 97.2541 48.8437C97.7049 49.1503 98.7279 49.3888 99.3347 48.8437C100.288 47.9918 101.728 46.4926 102.82 44.3971C103.93 46.4926 105.369 47.9918 106.322 48.8437C106.929 49.3888 107.935 49.1503 108.403 48.8437C108.871 48.537 109.426 48.06 109.426 48.06C105.213 44.806 104.623 40.4447 104.536 37.8892H104.519Z" fill="#261612"/>
<path d="M109.807 34.8569V39.2694H108.056C107.813 39.2694 106.912 39.3546 106.912 40.3938V41.4331H109.807V54.6193H111.264C112.547 54.6193 113.241 53.8357 113.241 52.4387V32.6763H111.784C110.501 32.6763 109.807 33.4429 109.807 34.8569Z" fill="#261612"/>
<path d="M128.481 50.7861H138.972C140.22 50.7861 141.243 49.9002 141.243 48.7928V44.9937H126.21C125.967 44.9937 125.066 45.0788 125.066 46.1351V47.1743H137.81V48.6224H127.025C125.742 48.6224 125.048 49.4061 125.048 50.8031V54.6363H140.307C140.549 54.6363 141.451 54.5512 141.451 53.5119V52.4727H128.481V50.8201V50.7861Z" fill="#261612"/>
<path d="M179.839 44.4141C176.094 44.4141 173.06 46.9866 173.06 50.1724C173.06 53.3582 176.094 55.9308 179.839 55.9308C183.585 55.9308 186.619 53.3582 186.619 50.1724C186.619 46.9866 183.585 44.4141 179.839 44.4141ZM179.839 53.9886C177.967 53.9886 176.441 52.2849 176.441 50.1724C176.441 48.0599 177.949 46.3733 179.839 46.3733C181.729 46.3733 183.238 48.0769 183.238 50.1724C183.238 52.2679 181.729 53.9886 179.839 53.9886Z" fill="#261612"/>
<path d="M162.57 35.2998V55.0622H164.009C165.257 55.0622 165.951 54.2785 165.951 52.8815V33.1191H164.512C163.246 33.1191 162.57 33.8858 162.57 35.2998Z" fill="#261612"/>
<path d="M157.559 35.2998V39.7123H155.548C155.322 39.7123 154.421 39.7975 154.421 40.8537V41.893H157.559V55.0622H158.998C160.264 55.0622 160.94 54.2785 160.94 52.8815V33.1191H159.501C158.252 33.1191 157.559 33.8858 157.559 35.2998Z" fill="#261612"/>
<path d="M154.438 34.1074H146.479C146.271 34.1074 145.422 34.1926 145.387 35.2318L145.352 36.3221H151.3C151.23 38.6561 150.381 43.1878 145.768 46.4077C145.318 46.7144 144.711 47.0892 144.173 47.3448C144.191 47.3448 144.485 47.8899 144.988 48.5203C145.439 49.0825 146.15 49.2869 146.982 48.7588C147.953 48.1455 149.219 47.1233 150.45 45.7263C150.814 45.3344 151.109 44.9767 151.334 44.6359C152.114 46.1352 153.606 48.0092 154.49 48.7588C155.027 49.2017 155.79 49.0143 156.172 48.6906C156.553 48.3669 157.108 47.7025 157.108 47.7025C155.201 45.7092 153.64 43.6478 153.033 41.7738C153.536 40.3257 154.282 38.3835 154.403 36.1347C154.455 35.7429 154.438 34.0903 154.438 34.0903V34.1074Z" fill="#261612"/>
</g>
<defs>
<clipPath id="clip0_1_410">
<rect width="190" height="76" fill="white"/>
</clipPath>
</defs>
</svg>
