<svg width="109" height="50" viewBox="0 0 109 50" fill="none" xmlns="http://www.w3.org/2000/svg">
<g clip-path="url(#clip0_1_453)">
<path d="M24.5727 48.475C20.3653 50.9261 14.6318 50.6503 9.16254 45.9724C4.48192 41.9716 4.83015 36.8697 4.83015 35.7687C4.83015 34.6676 5.30333 30.5392 5.30333 30.5392C5.30333 23.3134 0 20.5598 0 20.5598C0 20.5598 4.10706 17.2566 4.40613 16.9582C4.7052 16.6577 4.52494 16.7195 4.7052 16.3573C6.87037 12.0045 10.9774 12.2309 10.9774 12.2309C12.7718 12.2309 13.8903 12.908 15.0107 13.4328C17.5876 14.6409 21.7316 22.587 23.9746 26.3388C26.2135 30.0906 28.3049 32.7166 31.4431 32.7166C34.5813 32.7166 35.7734 29.8642 35.7734 28.0634C35.7734 26.2626 34.2801 23.1858 30.9945 23.1858C27.7088 23.1858 26.4368 26.1124 26.4368 26.1124C25.2426 25.0628 24.4211 21.9099 24.4211 20.1091C24.4211 18.3083 24.2716 11.4797 29.9478 7.57769C35.6239 3.67565 41.8224 4.12636 41.8224 4.12636C46.1548 4.12636 48.9181 5.92715 55.3398 5.92715C66.0223 5.92715 72.5199 0 72.5199 0C67.2165 8.85367 55.4156 9.82918 50.86 9.82918C46.3043 9.82918 44.3624 8.77753 40.3291 8.77753C30.3226 8.77753 27.4835 17.1825 27.4835 17.1825C31.8159 12.3811 36.222 12.2309 38.1639 12.2309C40.1058 12.2309 41.7486 12.6075 44.9606 13.3567C48.1704 14.1078 50.2618 14.4824 52.8019 14.4824C61.4666 14.4824 67.5176 9.97942 67.5176 9.97942C61.0201 16.808 52.6523 17.6333 48.5453 17.6333C44.4382 17.6333 41.0768 16.3573 38.6125 16.3573C32.414 16.3573 29.7245 20.4836 29.7245 20.4836C31.3673 20.3334 31.5926 20.3663 31.5926 20.3663C38.3155 20.3663 39.5855 25.886 39.5855 28.7364C39.5855 31.5867 37.2708 36.7668 31.3694 36.7668C25.4679 36.7668 22.4076 31.2142 21.8094 29.9383C21.2133 28.6623 16.5819 20.6339 15.6109 19.2817C14.64 17.9317 13.5953 15.5299 10.9795 15.5299C8.36366 15.5299 7.03219 17.3904 6.87242 18.156C6.72288 18.8701 6.42381 18.9813 6.42381 18.9813L4.63146 20.4075C9.4104 24.7582 8.55211 28.8866 8.55211 28.8866C8.22437 31.9757 8.14243 35.4168 8.14243 35.4168C8.14243 35.4168 8.06664 41.2698 13.4949 45.5711C18.9212 49.8745 24.5748 48.4729 24.5748 48.4729L24.5727 48.475Z" fill="#004A98"/>
<path d="M108.24 36.2113H99.397V33.9742C99.397 32.3463 98.2827 31.0127 96.9205 31.0127C95.5583 31.0127 94.446 32.3463 94.446 33.9742V36.2113H90.8326V33.9742C90.8326 32.3463 89.7183 31.0127 88.3561 31.0127C86.9939 31.0127 85.8816 32.3463 85.8816 33.9742V36.2113H78.5258C78.11 36.2113 77.7679 36.555 77.7679 36.9728V37.5367C77.7679 37.9565 78.1079 38.2981 78.5258 38.2981H108.242C108.66 38.2981 109 37.9545 109 37.5367V36.9728C109 36.5529 108.66 36.2113 108.242 36.2113H108.24Z" fill="#009CE1"/>
<path d="M106.46 45.2627H86.0455L86.0291 43.001V41.5068C86.0291 39.8789 84.8984 38.5474 83.5137 38.5474C82.129 38.5474 80.9982 39.8789 80.9982 41.5068V45.983C80.9982 47.0779 81.2051 47.3022 81.8893 47.3022L106.456 47.2878C106.872 47.2878 107.214 46.9442 107.214 46.5264V45.9913C107.214 45.5735 106.874 45.2627 106.456 45.2627H106.46Z" fill="#009CE1"/>
<path d="M80.9552 35.4499C81.242 35.7524 81.7233 35.7647 82.0265 35.4766L92.6373 25.419L101.826 34.2109C102.988 35.347 104.727 35.4622 105.692 34.4661C106.657 33.47 106.497 31.7269 105.335 30.5908L99.8968 25.4169H104.911C105.329 25.4169 105.669 25.0753 105.669 24.6555V24.0916C105.669 23.6717 105.329 23.3301 104.911 23.3301H81.8299C81.414 23.3301 81.072 23.6717 81.072 24.0916V24.6555C81.072 25.0753 81.412 25.4169 81.8299 25.4169H89.536L80.5947 33.9619C80.2936 34.25 80.2792 34.7337 80.568 35.0362L80.9572 35.4457L80.9552 35.4499Z" fill="#009CE1"/>
<path d="M74.5396 21.8379C73.159 21.8379 72.0262 23.1694 72.0262 24.7973V36.2153H66.6163C67.3886 35.3263 67.2247 34.0462 67.2247 34.0462V25.4168H69.7832C70.199 25.4168 70.5411 25.0752 70.5411 24.6553V24.0914C70.5411 23.6716 70.2011 23.33 69.7832 23.33H49.17C48.7542 23.33 48.4142 23.6716 48.4142 24.0914V24.6553C48.4142 25.0752 48.7542 25.4168 49.17 25.4168H62.286L62.3003 34.2952C62.2901 35.0567 61.9009 35.8284 61.2823 36.2153H59.1868C58.6685 35.9231 58.308 35.3695 57.9045 34.4948L57.7037 33.935C57.5173 33.4864 57.2735 32.8525 57.2735 32.8525C57.2735 32.8525 56.4931 31.0991 56.0486 28.862C56.0486 28.862 56.0117 27.3699 54.713 26.6969C54.713 26.6969 53.9695 26.347 53.3754 26.4582C53.3754 26.4582 52.6708 26.4726 52.1873 26.9583C52.1873 26.9583 51.7428 27.7033 51.3332 28.3001C51.3332 28.3001 51.1467 28.6726 50.9255 28.897C50.9255 28.897 51.8903 28.8599 52.1505 29.7531C52.1505 29.7531 52.6708 30.6113 52.5233 32.2886C52.5233 32.2886 52.3737 33.4823 52.7814 34.6389C52.7814 34.6389 53.0477 35.4353 53.8158 36.2112H47.6911C47.2753 36.2112 46.9332 36.5549 46.9332 36.9727V37.5407C46.9332 37.9585 47.2753 38.3001 47.6911 38.3001H72.0241V47.2917H77.053V24.7973C77.053 23.1694 75.9223 21.8379 74.5375 21.8379H74.5396Z" fill="#009CE1"/>
</g>
<defs>
<clipPath id="clip0_1_453">
<rect width="109" height="50" fill="white"/>
</clipPath>
</defs>
</svg>
