<svg width="114" height="28" viewBox="0 0 114 28" fill="none" xmlns="http://www.w3.org/2000/svg">
<g clip-path="url(#clip0_1_400)">
<path fill-rule="evenodd" clip-rule="evenodd" d="M44.8871 17.4157C44.8871 11.6022 40.6134 6.88965 34.9131 6.88965C29.2128 6.88965 24.5921 11.6022 24.5921 17.4157C24.5921 23.2292 29.2128 27.9418 34.9131 27.9418C40.2129 27.9418 43.2547 25.2811 44.5957 21.069L39.868 21.0544C38.8226 23.0833 36.8368 23.9945 34.9131 23.9945C32.3511 23.9945 30.1982 21.9218 29.5705 19.111H44.7543C44.8421 18.5584 44.8871 17.9933 44.8871 17.4157ZM29.6584 15.3451C30.3824 12.7157 32.4603 10.8161 34.9131 10.8161C37.3659 10.8161 39.3453 12.7428 39.823 15.3535L29.6584 15.3451Z" fill="#231815"/>
<path fill-rule="evenodd" clip-rule="evenodd" d="M111.47 21.0688C109.876 21.0688 108.634 22.493 109.009 24.1091C109.217 25.0015 109.96 25.7251 110.875 25.9253C112.535 26.2902 113.998 25.0808 113.998 23.5294C113.998 22.1677 112.869 21.0688 111.47 21.0688ZM111.477 25.7751C110.157 25.7751 109.154 24.7304 109.199 23.4501C109.24 22.2324 110.343 21.2315 111.597 21.2899C112.835 21.3483 113.743 22.3075 113.743 23.5252C113.743 24.743 112.768 25.7751 111.479 25.7751H111.477Z" fill="#231815"/>
<path fill-rule="evenodd" clip-rule="evenodd" d="M106.712 17.4157C106.712 11.6022 102.439 6.88965 96.7384 6.88965C91.0381 6.88965 86.4174 11.6022 86.4174 17.4157C86.4174 23.2292 91.0381 27.9418 96.7384 27.9418C102.038 27.9418 105.341 25.6627 106.421 21.069L101.693 21.0544C100.648 23.0833 98.662 23.9945 96.7384 23.9945C94.1763 23.9945 92.0235 21.9218 91.3958 19.111H106.58C106.667 18.5584 106.712 17.9933 106.712 17.4157ZM91.4836 15.3451C92.2077 12.7157 94.2856 10.8161 96.7384 10.8161C99.1912 10.8161 101.171 12.7428 101.648 15.3535L91.4836 15.3451Z" fill="#231815"/>
<path fill-rule="evenodd" clip-rule="evenodd" d="M63.811 0.318848H17.0131V19.2649H16.936L5.25903 0.318848H0V27.3763H5.35329V9.59171H5.42827L16.6297 27.3763H22.3643V4.20357H63.8325L63.811 0.318848Z" fill="#231815"/>
<path fill-rule="evenodd" clip-rule="evenodd" d="M51.3586 12.5321C51.38 11.6772 52.3483 10.0883 55.2552 10.0883C58.5627 10.0883 59.2289 12.3591 59.4581 13.116H63.9139C63.494 8.04064 58.9269 6.56641 54.951 6.56641C48.6037 6.56641 46.7315 10.5408 46.7315 13.4434C46.7315 20.8479 59.6959 17.8348 59.6959 21.9218C59.6959 23.6733 58.5649 24.3907 55.2509 24.3907C51.937 24.3907 50.8166 22.7392 50.8166 21.0648H46.528C46.6801 26.3487 50.8209 27.996 55.4458 27.996C59.4346 27.996 64.6144 26.87 64.6144 21.1002C64.6144 13.435 51.2686 16.3939 51.3629 12.528L51.3586 12.5321Z" fill="#231815"/>
<path fill-rule="evenodd" clip-rule="evenodd" d="M71.8935 0.275391H66.8015V7.83214H65.2656V11.5542H66.8015V20.0222C66.8015 22.5891 68.858 27.262 73.4851 27.262C74.3677 27.2495 76.6962 27.1869 76.6962 27.1869V23.665L75.5866 23.6546C73.6715 23.5691 71.8913 22.5557 71.8913 19.3487V11.5542H76.6941V7.83214H71.8913V0.275391H71.8935Z" fill="#231815"/>
<path fill-rule="evenodd" clip-rule="evenodd" d="M78.9926 27.3763H84.3459V0.318848H78.9926V27.3763Z" fill="#231815"/>
<path fill-rule="evenodd" clip-rule="evenodd" d="M105.513 0L87.4413 1.94549V4.14328H105.513V0Z" fill="#231815"/>
<path fill-rule="evenodd" clip-rule="evenodd" d="M111.877 23.6484C112.303 23.5817 112.648 23.3523 112.648 22.879C112.648 22.3535 112.351 22.0762 111.674 22.0762H110.551V24.985H110.808V23.6422H111.586L112.485 24.985H112.77L111.877 23.6484ZM111.444 23.4211H110.808V22.2889H111.633C111.991 22.2889 112.389 22.4202 112.389 22.8685C112.389 23.3752 111.896 23.4211 111.442 23.4211H111.444Z" fill="#231815"/>
</g>
<defs>
<clipPath id="clip0_1_400">
<rect width="114" height="28" fill="white"/>
</clipPath>
</defs>
</svg>
