<svg width="181" height="36" viewBox="0 0 181 36" fill="none" xmlns="http://www.w3.org/2000/svg">
<g clip-path="url(#clip0_1_460)">
<path d="M17.7702 36C27.5875 36 35.5468 27.9392 35.5468 17.9967C35.5468 8.05426 27.5875 0 17.7702 0C7.95286 0 0 8.06077 0 17.9967C0 27.9327 7.95929 36 17.7702 36Z" fill="#C60E41"/>
<path d="M17.063 10.0986V25.8816H22.0199V24.4687H18.4838V10.0986H17.063Z" fill="white"/>
<path d="M12.0933 14.4092C13.2698 14.4092 14.2277 13.439 14.2277 12.2475C14.2277 11.0559 13.2762 10.0923 12.0933 10.0923C10.9103 10.0923 9.96521 11.0559 9.96521 12.2475C9.96521 13.439 10.9167 14.4092 12.0933 14.4092Z" fill="white"/>
<path d="M18.4838 2.93636C18.2974 2.92334 17.9438 2.92334 17.7702 2.92334C9.57302 2.92334 2.89313 9.6884 2.89313 17.9966C2.89313 22.0205 4.44255 25.8034 7.25209 28.6488C10.0616 31.4941 13.8034 33.0633 17.7702 33.0633C21.737 33.0633 25.4852 31.5007 28.2947 28.6488C31.0978 25.8034 32.6473 22.0205 32.6473 17.9966V17.3064H32.0493H22.0199V18.7063H31.2264V18.9147C30.7507 26.0183 24.9001 31.6504 17.7638 31.6504C14.1699 31.6504 10.7817 30.2245 8.23576 27.6461C5.68338 25.0677 4.28182 21.6363 4.28182 17.9901C4.28182 14.3438 5.68338 10.9125 8.23576 8.32757C10.7817 5.74917 14.1699 4.32974 17.7638 4.32974C17.9245 4.32974 18.3102 4.32974 18.4774 4.34276V2.93636H18.4838Z" fill="white"/>
<path d="M48.5787 6.04248H43.2296V29.489H59.6625V24.9247H48.5787V6.04248Z" fill="#636466"/>
<path d="M71.4279 20.5556H75.7869V24.6577C74.9832 24.9637 73.421 25.2762 71.9294 25.2762C67.114 25.2762 65.5067 22.802 65.5067 17.7689C65.5067 12.7358 67.0368 10.1444 71.8458 10.1444C74.5203 10.1444 76.0505 10.9908 77.3106 12.6186L80.6345 9.52581C78.6093 6.58278 75.054 5.69727 71.7301 5.69727C64.2401 5.69727 60.3055 9.83834 60.3055 17.7298C60.3055 25.6213 63.8608 29.8405 71.6915 29.8405C75.2854 29.8405 78.8022 28.9094 80.7116 27.5551V16.1802H71.4279V20.5556Z" fill="#636466"/>
<path d="M177.078 10.6003V5.69092H172.996V18.7653H176.77C177.02 17.5737 177.072 16.1543 177.072 15.0474V14.0382H181V10.6003H177.072H177.078Z" fill="#636466"/>
<path d="M103.683 9.90361H101.999V5.71696H98.1732V18.2248H101.594C101.876 17.3979 101.999 15.8222 101.999 14.8911V13.1852H103.683V19.0973H107.174C107.508 18.1662 107.611 16.2845 107.611 15.093V5.69092H103.683V9.90361Z" fill="#636466"/>
<path d="M99.3562 19.2598C93.3385 19.2598 91.5383 21.7861 91.5383 24.664C91.5383 27.5419 93.3385 30.0682 99.3562 30.0682C105.374 30.0682 107.335 27.62 107.335 24.664C107.335 21.7079 105.477 19.2598 99.3562 19.2598ZM99.3819 27.008C96.926 27.008 95.8394 26.142 95.8394 24.664C95.8394 23.2967 96.9195 22.3721 99.3819 22.3721C101.844 22.3721 102.95 23.2967 102.95 24.664C102.95 26.142 101.896 27.008 99.3819 27.008Z" fill="#636466"/>
<path d="M121.119 8.09332V5.34562H118.425C117.088 5.34562 115.075 5.03309 113.796 4.5708L113.237 7.49429C114.767 7.95658 116.528 8.08681 118.136 8.08681H121.119V8.09332Z" fill="#636466"/>
<path d="M95.9809 18.4787L97.9482 15.2492C94.7079 13.8037 93.4799 11.9155 93.4799 7.9893V6.10107H89.4746V8.01534C89.4746 12.4559 88.8059 14.4744 85.2892 16.1868L86.7165 18.9475C88.8316 18.1987 90.8054 16.7988 91.8212 14.9627C92.5863 16.5384 94.3993 17.9578 95.9809 18.4787Z" fill="#636466"/>
<path d="M169.395 10.4958V6.1333H157.99V9.44095H165.184V10.8864C165.184 13.1588 162.761 15.2293 157.251 17.5278L158.627 20.4447C166.258 17.2413 169.389 14.7866 169.389 10.4958" fill="#636466"/>
<path d="M143.299 25.8686V20.4839H139.037V27.6266C139.037 29.0981 139.776 29.7948 141.229 29.7948H155.631V26.3048H143.724C143.389 26.3048 143.293 26.2267 143.293 25.8686" fill="#636466"/>
<path d="M145.556 14.0642H150.706V22.978H154.48C154.788 21.7148 154.962 19.514 154.962 18.0165V5.69092H150.699V10.6003H146.411V6.05554H134.935V9.36319H142.258V10.9649C142.258 13.1852 139.641 15.4316 134.234 17.7039L135.662 20.5428C140.927 18.2965 144.135 16.5515 145.556 14.0577" fill="#636466"/>
<path d="M118.579 26.7478V26.2204H129.258C129.695 25.5497 129.792 24.2019 129.792 22.9322V20.3604H114.523V22.9192H125.741V23.8112H114.523V28.2714C114.523 29.3327 115.005 29.8731 116.31 29.8731H130.531V27.1059H119.01C118.676 27.1059 118.579 27.0538 118.579 26.7413" fill="#636466"/>
<path d="M169.601 19.0449C164.014 19.0449 162.278 21.6298 162.278 24.5729C162.278 27.5159 164.014 30.0748 169.601 30.0748C175.188 30.0748 177.078 27.594 177.078 24.5729C177.078 21.5517 175.317 19.0449 169.601 19.0449ZM169.627 27.0796C167.537 27.0796 166.438 26.2006 166.438 24.5729C166.438 23.0493 167.537 22.0921 169.627 22.0921C171.716 22.0921 172.841 23.0493 172.841 24.5729C172.841 26.2006 171.768 27.0796 169.627 27.0796Z" fill="#636466"/>
<path d="M129.798 5.69092H125.741V15.7376C124.057 16.5905 121.652 16.877 119.64 16.877V16.2324C121.794 15.8027 122.752 14.6632 122.752 13.042C122.752 12.5992 122.643 12.1955 122.45 11.8244H124.809V9.05717H109.971V11.8244H112.536C112.343 12.189 112.234 12.5992 112.234 13.042C112.234 14.7088 113.275 15.8613 115.525 16.265V16.877H109.971V19.5922H118.438C121.247 19.5922 124.256 19.2796 125.735 18.4527V19.4099H129.792V14.507H133.437V11.0431H129.792V5.69092H129.798ZM115.892 12.8987C115.892 12.1239 116.413 11.7398 117.474 11.7398C118.534 11.7398 119.004 12.1239 119.004 12.8987C119.004 13.6736 118.431 14.0903 117.39 14.0903C116.348 14.0903 115.886 13.6736 115.886 12.8987" fill="#636466"/>
</g>
<defs>
<clipPath id="clip0_1_460">
<rect width="181" height="36" fill="white"/>
</clipPath>
</defs>
</svg>
