<svg width="162" height="34" viewBox="0 0 162 34" fill="none" xmlns="http://www.w3.org/2000/svg">
<g clip-path="url(#clip0_1_486)">
<path d="M65.0384 29.6217C66.436 29.6217 68.8343 29.1698 70.7084 26.2092C69.6284 23.8719 68.866 19.1194 68.7549 17.3898C68.199 8.55475 71.6772 0.233942 75.4731 0.000211533C78.2525 -0.171191 80.4919 2.41543 80.746 6.60699C81.429 17.6235 77.6966 22.2202 75.8225 26.1936C76.1401 27.7362 78.7925 30.354 81.3019 30.354C82.2231 30.354 83.3507 29.9021 83.6207 29.5282C83.4301 28.8893 83.2396 28.079 83.2396 26.8792C83.2396 20.5062 87.4325 15.1148 91.0537 15.1148C93.9443 15.1148 95.6119 18.8545 95.6119 21.332C95.6119 24.2459 93.1025 26.6143 89.386 28.9049C90.0372 29.5438 91.2443 29.9956 92.2766 29.9956C97.5813 29.9956 100.361 23.7005 102.41 17.9507C102.775 16.86 103.442 15.3018 104.728 15.3018C106.968 15.3018 107.889 29.7152 111.605 29.7152C113.194 29.7152 114.48 26.5208 114.48 24.0745C114.48 22.2514 113.829 22.0644 113.829 19.4154C113.829 16.5016 115.417 14.0396 117.545 14.0396C118.848 14.0396 119.308 15.3174 119.308 16.86C119.308 22.7032 115.036 33.5483 108.715 33.5483C103.966 33.5483 104.331 25.508 102.68 25.508C100.821 25.508 98.2166 33.6418 89.0049 33.6418C87.5119 33.6418 85.9396 32.9095 84.6372 31.4448C82.3978 32.9095 80.5396 33.5483 78.3954 33.5483C74.9649 33.5483 73.4719 30.0735 72.0743 30.0735C70.3907 30.0735 68.5484 33.6418 62.9578 33.6418C58.4949 33.6418 57.7484 27.7986 56.176 27.7986C54.7784 27.7986 52.6343 33.6418 50.3154 33.6418C46.4084 33.6418 45.5666 23.5135 42.136 23.5135C39.436 23.5135 30.9231 33.7976 28.6043 33.5639C27.6831 33.4704 27.286 32.7848 27.3813 31.8655C27.5084 30.6033 28.6201 27.222 29.0648 25.6327C29.8113 22.8591 30.5101 19.8206 30.8913 18.8545C31.2725 17.8728 32.3048 17.1872 33.1307 17.2495C33.5437 17.2963 33.6707 18.0442 33.7978 18.6831C34.2584 20.9425 34.9254 23.2486 35.656 23.2486C36.9584 23.2486 41.2784 15.1304 43.7878 15.1304C46.8531 15.1304 47.2343 27.9076 51.4113 27.9076C52.809 27.9076 53.8413 26.2715 54.7625 24.2614C54.8578 20.8801 55.779 16.0497 58.5743 16.0497C60.5278 16.0497 61.4648 20.3348 60.0672 24.0745C60.0672 28.5309 63.0372 29.6372 64.9907 29.6372L65.0384 29.6217ZM134.381 21.0515C134.381 18.7766 132.252 15.5822 129.092 15.5822C124.915 15.5822 120.817 20.0543 120.817 26.2559C120.817 31.8187 124.343 33.6418 127.869 33.6418C134 33.6418 137.732 28.7023 139.67 24.6042C140.607 27.3467 141.147 33.6418 143.481 33.6418C144.402 33.6418 145.07 33.1899 146.181 30.7124C148.961 24.6042 151.661 17.5767 155.377 17.5767C156.759 17.5767 155.933 20.0387 159.284 20.0387C160.872 20.0387 161.984 18.761 161.984 17.2963C161.984 15.1927 160.031 13.5566 157.061 13.5566C148.325 13.5566 146.467 26.4273 145.07 26.4273C142.751 26.4273 143.481 16.1276 141.814 16.1276C140.321 16.1276 139.574 17.8572 139.4 18.6831C138.192 23.42 134.762 30.2761 129.552 30.2761C128.345 30.2761 126.201 29.8242 126.201 28.6244C126.201 27.3467 134.381 27.1753 134.381 21.0515ZM77.7284 9.08454C77.5695 6.54467 76.9343 5.3916 75.5525 5.48509C73.6943 5.59416 72.8525 11.3128 73.2178 17.3119C73.456 21.2385 74.0596 21.8306 74.6154 21.7995C75.6478 21.7372 78.0937 14.7408 77.7443 9.08454H77.7284ZM62.6084 3.7399C62.5131 2.27519 61.306 1.27794 59.7337 1.27794C57.9707 1.27794 56.2872 3.10104 56.4778 5.37601C56.4778 6.74723 57.4943 8.11845 59.2731 8.11845C61.3219 8.11845 62.799 5.84348 62.6084 3.7399ZM91.5301 22.3449C91.5301 20.8022 90.6884 19.5089 89.6719 19.5089C88.8301 19.5089 86.8766 20.4283 86.8766 23.3421C86.8766 25.6171 87.7025 26.7078 88.0837 27.1753C90.7678 26.3494 91.5301 24.1679 91.5301 22.3449ZM127.869 19.244C129.822 19.244 130.378 21.519 129.918 22.8902C129.457 24.2614 127.774 25.8041 125.169 26.2559C124.613 24.8847 124.327 19.244 127.869 19.244ZM0.0160247 20.6932C-0.0792694 16.9535 0.111319 13.2138 1.69955 7.91589C2.54132 5.09554 3.28779 4.08271 5.87661 3.53733C7.92544 3.16336 7.73485 5.26694 7.27426 7.7289C6.25779 13.1982 5.78132 15.8471 6.1625 22.0488C6.52779 28.6088 9.60896 31.1643 12.9443 31.1643C17.9631 31.2578 20.2025 27.1597 21.1237 21.2229C21.8701 16.486 21.2984 14.1954 20.8378 12.7463C20.5678 11.9205 19.8213 10.0974 19.5354 8.74173C19.1701 5.26694 20.8378 3.63083 22.2354 3.17895C23.9031 2.72707 24.5701 3.55292 25.2054 5.45392C26.0472 8.36776 26.1425 12.2009 25.8566 17.6702C25.4913 25.1496 21.6796 34.1872 12.1978 34.0002C4.01838 33.8132 0.397201 28.6244 0.0160247 20.6932Z" fill="#232F84"/>
</g>
<defs>
<clipPath id="clip0_1_486">
<rect width="162" height="34" fill="white"/>
</clipPath>
</defs>
</svg>
