<svg width="194" height="26" viewBox="0 0 194 26" fill="none" xmlns="http://www.w3.org/2000/svg">
<g clip-path="url(#clip0_6_2)">
<path d="M2.02682 19.2072C4.46861 20.1832 7.08311 20.6688 9.71736 20.6357C13.004 20.6357 15.9889 19.4728 15.9889 17.3078C15.9889 15.843 14.5209 14.845 11.2343 13.686C7.28706 12.2856 4.30218 10.5231 4.30218 7.82689C4.30218 3.53313 9.97018 0.869141 16.8493 0.869141C20.6456 0.869141 23.1208 1.46874 24.4379 1.99992L22.5173 5.1951C20.5522 4.51605 18.4827 4.17838 16.4007 4.1971C12.6085 4.1971 10.484 5.6297 10.484 7.12668C10.484 8.62366 12.4046 9.58946 15.5933 10.7484C19.7403 12.177 22.2196 13.9677 22.2196 16.7042C22.2196 21.1991 16.6535 23.9476 9.06493 23.9476C4.91791 23.9154 1.52934 23.1428 0.00836182 22.3862L2.02682 19.2072Z" fill="white"/>
<path d="M25.4816 23.6338L29.8732 7.42455H35.3414L30.9538 23.6338H25.4816ZM30.7255 3.03018C30.7255 1.66599 32.2342 0.700195 34.0284 0.700195C35.8226 0.700195 36.9562 1.5332 36.9562 2.76458C36.9114 4.19315 35.3985 5.09457 33.5106 5.09457C31.8591 5.09457 30.7255 4.26157 30.7255 3.03018Z" fill="white"/>
<path d="M49.907 0L46.8691 9.78672L46.971 9.81891C48.9446 8.05633 51.8276 7.05835 55.0163 7.05835C60.2766 7.05835 62.454 9.87525 62.454 12.7807C62.454 17.9074 57.0878 24 46.6163 24C41.458 24 38.3712 22.5674 38.3712 19.6378C38.3908 18.6852 38.5614 17.7416 38.8768 16.841L43.9861 0H49.907ZM44.7446 17.0543C44.5038 17.6691 44.4009 18.3281 44.4429 18.9859C44.4918 20.3179 45.6662 21.0503 47.7295 21.0503C52.8918 21.0503 56.2926 16.6881 56.2926 13.493C56.2926 11.7304 55.1305 10.2294 52.3944 10.2294C50.7826 10.2627 49.2222 10.7949 47.9336 11.751C46.6451 12.7071 45.6936 14.0386 45.2135 15.5573L44.7446 17.0543Z" fill="white"/>
<path d="M64.8109 23.6338L69.1863 7.42455H74.6667L70.275 23.6338H64.8109ZM70.0548 3.03018C70.0548 1.66599 71.5636 0.700195 73.3578 0.700195C75.152 0.700195 76.2856 1.5332 76.2856 2.76458C76.2407 4.19315 74.7279 5.09457 72.8399 5.09457C71.1884 5.09457 70.0548 4.26157 70.0548 3.03018Z" fill="white"/>
<path d="M75.0704 21.2676L84.8324 14.2374C86.6353 12.9458 88.5114 11.7568 90.4515 10.6761L90.5004 10.5755H79.0136L79.9759 7.4165H98.4927L97.7873 9.91148L88.1721 16.8008C86.3896 18.1052 84.5311 19.3051 82.606 20.3944V20.4628H95.0552L94.1418 23.6258H74.4099L75.0704 21.2676Z" fill="white"/>
<path d="M98.5457 23.6338L102.937 7.42455H108.418L104.026 23.6338H98.5457ZM103.79 3.03018C103.79 1.66599 105.298 0.700195 107.093 0.700195C108.887 0.700195 110.02 1.5332 110.02 2.76458C109.976 4.19315 108.463 5.09457 106.575 5.09457C104.903 5.09457 103.769 4.26157 103.769 3.03018H103.79Z" fill="white"/>
</g>
<path d="M120.134 12L121.825 1.81818H124.286L122.933 10.0014H127.169L126.831 12H120.134ZM128.105 12L129.378 4.36364H131.809L130.536 12H128.105ZM130.765 3.46875C130.42 3.46875 130.14 3.3544 129.925 3.12571C129.709 2.89702 129.625 2.62358 129.671 2.3054C129.717 1.9839 129.88 1.71046 130.158 1.48508C130.437 1.25971 130.747 1.14702 131.088 1.14702C131.433 1.14702 131.709 1.25971 131.918 1.48508C132.13 1.71046 132.213 1.9839 132.167 2.3054C132.127 2.62358 131.968 2.89702 131.689 3.12571C131.414 3.3544 131.106 3.46875 130.765 3.46875ZM140.764 4.36364L136.871 12H134.087L132.745 4.36364H135.216L135.752 9.62358H135.832L138.114 4.36364H140.764ZM143.727 12.1442C142.928 12.1442 142.265 11.9867 141.738 11.6719C141.215 11.3537 140.847 10.9013 140.635 10.3146C140.422 9.72467 140.384 9.02367 140.52 8.21165C140.653 7.42282 140.923 6.73343 141.331 6.14347C141.742 5.55019 142.259 5.08949 142.882 4.76136C143.505 4.42992 144.199 4.2642 144.965 4.2642C145.508 4.2642 145.991 4.34872 146.412 4.51776C146.833 4.68679 147.181 4.93868 147.456 5.27344C147.731 5.60488 147.918 6.01255 148.017 6.49645C148.117 6.98035 148.114 7.53551 148.007 8.16193L147.913 8.76847H141.281L141.505 7.35653H145.88C145.919 7.09801 145.898 6.86766 145.815 6.66548C145.732 6.4633 145.598 6.30587 145.412 6.19318C145.23 6.07718 145.006 6.01918 144.741 6.01918C144.473 6.01918 144.221 6.08215 143.985 6.2081C143.753 6.33073 143.556 6.49645 143.394 6.70526C143.231 6.91406 143.125 7.14938 143.076 7.41122L142.812 8.85795C142.759 9.17945 142.774 9.45455 142.857 9.68324C142.94 9.91193 143.082 10.0876 143.284 10.2102C143.487 10.3295 143.747 10.3892 144.065 10.3892C144.277 10.3892 144.476 10.361 144.662 10.3047C144.847 10.245 145.013 10.1572 145.159 10.0412C145.308 9.92187 145.429 9.7777 145.522 9.60866L147.739 9.6733C147.56 10.1738 147.283 10.6096 146.909 10.9808C146.534 11.3487 146.077 11.6354 145.537 11.8409C145 12.0431 144.396 12.1442 143.727 12.1442ZM123.679 25.1442C122.874 25.1442 122.209 24.9785 121.685 24.647C121.165 24.3156 120.8 23.8549 120.592 23.2649C120.383 22.6716 120.345 21.9856 120.477 21.2067C120.603 20.4245 120.87 19.7384 121.278 19.1484C121.685 18.5552 122.206 18.0928 122.839 17.7614C123.472 17.4299 124.188 17.2642 124.987 17.2642C125.692 17.2642 126.286 17.3918 126.766 17.647C127.25 17.9022 127.6 18.2635 127.815 18.7308C128.034 19.1948 128.099 19.7401 128.009 20.3665H125.737C125.757 19.9787 125.678 19.6738 125.499 19.4517C125.32 19.2263 125.059 19.1136 124.718 19.1136C124.43 19.1136 124.165 19.1932 123.923 19.3523C123.684 19.508 123.48 19.7401 123.311 20.0483C123.145 20.3532 123.026 20.7311 122.953 21.1818C122.88 21.6326 122.875 22.0137 122.938 22.3253C123.004 22.6335 123.129 22.8672 123.311 23.0263C123.497 23.1821 123.732 23.2599 124.017 23.2599C124.242 23.2599 124.451 23.2119 124.643 23.1158C124.836 23.0196 125.003 22.8788 125.146 22.6932C125.288 22.5043 125.399 22.2756 125.479 22.0071H127.746C127.616 22.6402 127.366 23.192 126.995 23.6626C126.627 24.13 126.161 24.4946 125.598 24.7564C125.035 25.0149 124.395 25.1442 123.679 25.1442ZM132.047 25.1442C131.242 25.1442 130.577 24.9785 130.054 24.647C129.533 24.3156 129.167 23.8532 128.955 23.2599C128.743 22.6667 128.702 21.9773 128.831 21.1918C128.96 20.4096 129.227 19.7235 129.631 19.1335C130.036 18.5436 130.553 18.0845 131.182 17.7564C131.812 17.4283 132.526 17.2642 133.325 17.2642C134.127 17.2642 134.788 17.4299 135.309 17.7614C135.832 18.0928 136.2 18.5552 136.412 19.1484C136.628 19.7417 136.671 20.4328 136.542 21.2216C136.412 22.0038 136.144 22.6899 135.736 23.2798C135.329 23.8665 134.812 24.3239 134.185 24.652C133.559 24.9801 132.846 25.1442 132.047 25.1442ZM132.321 23.3097C132.619 23.3097 132.886 23.2202 133.121 23.0412C133.36 22.8622 133.56 22.612 133.723 22.2905C133.885 21.969 134.001 21.5961 134.071 21.1719C134.14 20.7543 134.147 20.388 134.091 20.0732C134.038 19.755 133.925 19.508 133.753 19.3324C133.58 19.1534 133.347 19.0639 133.052 19.0639C132.753 19.0639 132.485 19.1551 132.246 19.3374C132.008 19.5163 131.807 19.7666 131.645 20.0881C131.486 20.4062 131.371 20.7791 131.302 21.2067C131.232 21.6243 131.224 21.9905 131.277 22.3054C131.33 22.6203 131.444 22.8672 131.62 23.0462C131.796 23.2218 132.029 23.3097 132.321 23.3097ZM137.171 25L138.443 17.3636H140.755L140.526 18.7656H140.611C140.843 18.3016 141.171 17.9354 141.595 17.6669C142.02 17.3984 142.494 17.2642 143.017 17.2642C143.544 17.2642 143.973 17.4001 144.305 17.6719C144.64 17.9437 144.82 18.3082 144.847 18.7656H144.926C145.145 18.3116 145.483 17.9486 145.941 17.6768C146.401 17.4018 146.915 17.2642 147.482 17.2642C148.198 17.2642 148.743 17.4962 149.117 17.9602C149.495 18.4209 149.616 19.054 149.48 19.8594L148.625 25H146.199L146.975 20.4162C147.028 20.035 146.971 19.745 146.806 19.5462C146.643 19.344 146.406 19.2429 146.095 19.2429C145.76 19.2429 145.48 19.3506 145.254 19.5661C145.032 19.7815 144.895 20.0732 144.842 20.4411L144.071 25H141.73L142.51 20.3913C142.56 20.0367 142.505 19.7566 142.346 19.5511C142.19 19.3456 141.953 19.2429 141.635 19.2429C141.426 19.2429 141.232 19.2943 141.053 19.397C140.874 19.4964 140.724 19.639 140.601 19.8246C140.482 20.0102 140.404 20.2289 140.367 20.4808L139.602 25H137.171ZM150.132 25L151.404 17.3636H153.716L153.487 18.7656H153.572C153.804 18.3016 154.132 17.9354 154.556 17.6669C154.981 17.3984 155.454 17.2642 155.978 17.2642C156.505 17.2642 156.934 17.4001 157.266 17.6719C157.601 17.9437 157.781 18.3082 157.808 18.7656H157.887C158.106 18.3116 158.444 17.9486 158.901 17.6768C159.362 17.4018 159.876 17.2642 160.443 17.2642C161.159 17.2642 161.704 17.4962 162.078 17.9602C162.456 18.4209 162.577 19.054 162.441 19.8594L161.586 25H159.16L159.936 20.4162C159.989 20.035 159.932 19.745 159.767 19.5462C159.604 19.344 159.367 19.2429 159.056 19.2429C158.721 19.2429 158.441 19.3506 158.215 19.5661C157.993 19.7815 157.856 20.0732 157.803 20.4411L157.032 25H154.691L155.471 20.3913C155.521 20.0367 155.466 19.7566 155.307 19.5511C155.151 19.3456 154.914 19.2429 154.596 19.2429C154.387 19.2429 154.193 19.2943 154.014 19.397C153.835 19.4964 153.685 19.639 153.562 19.8246C153.443 20.0102 153.365 20.2289 153.328 20.4808L152.563 25H150.132ZM166.627 25.1442C165.829 25.1442 165.166 24.9867 164.639 24.6719C164.115 24.3537 163.747 23.9013 163.535 23.3146C163.323 22.7247 163.285 22.0237 163.421 21.2116C163.553 20.4228 163.823 19.7334 164.231 19.1435C164.642 18.5502 165.159 18.0895 165.782 17.7614C166.405 17.4299 167.1 17.2642 167.865 17.2642C168.409 17.2642 168.891 17.3487 169.312 17.5178C169.733 17.6868 170.081 17.9387 170.356 18.2734C170.631 18.6049 170.818 19.0125 170.918 19.4964C171.017 19.9804 171.014 20.5355 170.908 21.1619L170.813 21.7685H164.181L164.405 20.3565H168.78C168.82 20.098 168.798 19.8677 168.715 19.6655C168.633 19.4633 168.498 19.3059 168.313 19.1932C168.13 19.0772 167.907 19.0192 167.642 19.0192C167.373 19.0192 167.121 19.0821 166.886 19.2081C166.654 19.3307 166.457 19.4964 166.294 19.7053C166.132 19.9141 166.026 20.1494 165.976 20.4112L165.713 21.858C165.66 22.1795 165.674 22.4545 165.757 22.6832C165.84 22.9119 165.983 23.0876 166.185 23.2102C166.387 23.3295 166.647 23.3892 166.965 23.3892C167.177 23.3892 167.376 23.361 167.562 23.3047C167.748 23.245 167.913 23.1572 168.059 23.0412C168.208 22.9219 168.329 22.7777 168.422 22.6087L170.639 22.6733C170.46 23.1738 170.184 23.6096 169.809 23.9808C169.435 24.3487 168.977 24.6354 168.437 24.8409C167.9 25.0431 167.297 25.1442 166.627 25.1442ZM171.513 25L172.786 17.3636H175.147L174.914 18.7557H174.993C175.215 18.2519 175.505 17.8774 175.863 17.6321C176.221 17.3835 176.609 17.2592 177.027 17.2592C177.139 17.2592 177.252 17.2675 177.365 17.2841C177.481 17.2973 177.59 17.3172 177.693 17.3438L177.335 19.4616C177.222 19.4186 177.075 19.3871 176.892 19.3672C176.71 19.344 176.544 19.3324 176.395 19.3324C176.107 19.3324 175.838 19.397 175.59 19.5263C175.345 19.6522 175.136 19.8295 174.963 20.0582C174.794 20.2836 174.683 20.5488 174.63 20.8537L173.944 25H171.513ZM180.554 25.1442C179.749 25.1442 179.084 24.9785 178.56 24.647C178.04 24.3156 177.675 23.8549 177.467 23.2649C177.258 22.6716 177.22 21.9856 177.352 21.2067C177.478 20.4245 177.745 19.7384 178.153 19.1484C178.56 18.5552 179.081 18.0928 179.714 17.7614C180.347 17.4299 181.063 17.2642 181.862 17.2642C182.567 17.2642 183.161 17.3918 183.641 17.647C184.125 17.9022 184.475 18.2635 184.69 18.7308C184.909 19.1948 184.974 19.7401 184.884 20.3665H182.612C182.632 19.9787 182.553 19.6738 182.374 19.4517C182.195 19.2263 181.934 19.1136 181.593 19.1136C181.305 19.1136 181.04 19.1932 180.798 19.3523C180.559 19.508 180.355 19.7401 180.186 20.0483C180.02 20.3532 179.901 20.7311 179.828 21.1818C179.755 21.6326 179.75 22.0137 179.813 22.3253C179.879 22.6335 180.004 22.8672 180.186 23.0263C180.372 23.1821 180.607 23.2599 180.892 23.2599C181.117 23.2599 181.326 23.2119 181.518 23.1158C181.711 23.0196 181.878 22.8788 182.021 22.6932C182.163 22.5043 182.274 22.2756 182.354 22.0071H184.621C184.491 22.6402 184.241 23.192 183.87 23.6626C183.502 24.13 183.036 24.4946 182.473 24.7564C181.91 25.0149 181.27 25.1442 180.554 25.1442ZM188.912 25.1442C188.114 25.1442 187.451 24.9867 186.924 24.6719C186.4 24.3537 186.032 23.9013 185.82 23.3146C185.608 22.7247 185.57 22.0237 185.706 21.2116C185.838 20.4228 186.108 19.7334 186.516 19.1435C186.927 18.5502 187.444 18.0895 188.067 17.7614C188.69 17.4299 189.385 17.2642 190.15 17.2642C190.694 17.2642 191.176 17.3487 191.597 17.5178C192.018 17.6868 192.366 17.9387 192.641 18.2734C192.916 18.6049 193.104 19.0125 193.203 19.4964C193.302 19.9804 193.299 20.5355 193.193 21.1619L193.099 21.7685H186.466L186.69 20.3565H191.065C191.105 20.098 191.083 19.8677 191.001 19.6655C190.918 19.4633 190.783 19.3059 190.598 19.1932C190.416 19.0772 190.192 19.0192 189.927 19.0192C189.658 19.0192 189.406 19.0821 189.171 19.2081C188.939 19.3307 188.742 19.4964 188.579 19.7053C188.417 19.9141 188.311 20.1494 188.261 20.4112L187.998 21.858C187.945 22.1795 187.96 22.4545 188.042 22.6832C188.125 22.9119 188.268 23.0876 188.47 23.2102C188.672 23.3295 188.932 23.3892 189.251 23.3892C189.463 23.3892 189.662 23.361 189.847 23.3047C190.033 23.245 190.198 23.1572 190.344 23.0412C190.493 22.9219 190.614 22.7777 190.707 22.6087L192.925 22.6733C192.746 23.1738 192.469 23.6096 192.094 23.9808C191.72 24.3487 191.262 24.6354 190.722 24.8409C190.185 25.0431 189.582 25.1442 188.912 25.1442Z" fill="#828282"/>
<defs>
<clipPath id="clip0_6_2">
<rect width="110" height="24" fill="white"/>
</clipPath>
</defs>
</svg>
